<?xml version="1.0" encoding="UTF-8"?>
<svg id="Layer_2" data-name="Layer 2" xmlns="http://www.w3.org/2000/svg" viewBox="0 0 39 48">
  <defs>
    <style>
      .cls-1 {
        fill: #f4eddf;
      }
    </style>
  </defs>
  <g id="Layer_1-2" data-name="Layer 1">
    <path class="cls-1" d="M37.91,19.43c-.77-.91-1.86-1.43-2.99-1.43h-9.43c-.11-6.4-.99-18-5.99-18s-5.88,11.6-5.99,18H4.08c-1.13,0-2.22,.52-2.99,1.43-.88,1.05-1.26,2.51-1.02,3.91l3.61,21c.37,2.12,2.05,3.66,4.01,3.66H31.31c1.96,0,3.64-1.54,4.01-3.66l3.61-21c.24-1.4-.14-2.86-1.02-3.91ZM19.5,3c1.28,0,2.82,6.57,2.98,15h-5.96c.16-7.09,1.47-15,2.98-15Zm16.47,19.83l-3.61,21c-.11,.67-.57,1.17-1.05,1.17H7.69c-.48,0-.94-.5-1.05-1.17L3.03,22.83c-.09-.54,.04-1.09,.36-1.47,.14-.16,.37-.36,.69-.36h30.84c.32,0,.55,.2,.69,.36,.32,.38,.45,.93,.36,1.47Z"/>
  </g>
</svg>