<?xml version="1.0" encoding="utf-8"?>
<!-- Generator: Adobe Illustrator 26.5.0, SVG Export Plug-In . SVG Version: 6.00 Build 0)  -->
<svg version="1.1" id="Layer_2_00000072251081596801923770000012538766500681981350_"
	 xmlns="http://www.w3.org/2000/svg" xmlns:xlink="http://www.w3.org/1999/xlink" x="0px" y="0px" viewBox="0 0 320 239"
	 style="enable-background:new 0 0 320 239;" xml:space="preserve">
<style type="text/css">
	.st0{fill:#F4EDDF;}
</style>
<g id="Layer_6">
	<path class="st0" d="M313,0H138.4c-37,0-71.7,14.4-97.9,40.5C14.4,66.7,0,101.4,0,138.4V232c0,3.9,3.1,7,7,7h174.6
		c37,0,71.7-14.4,97.8-40.5c26.1-26.1,40.5-60.9,40.5-97.8V7C320,3.1,316.9,0,313,0z M8,138.4C8,66.5,66.5,8,138.4,8H309
		c-0.2,5.3-2.2,30.4-18.4,55.3c-10.7,16.4-25.5,29.5-43.9,38.8C223.4,114,194.3,120,160,120s-65.8,5.8-90.2,17.3
		c-19.7,9.2-35.5,22.2-47,38.4c-6.4,9.1-11.4,19-14.9,29.5C8,205.2,8,138.4,8,138.4z M312,100.6c0,71.9-58.5,130.4-130.4,130.4H11
		c0.3-5,2.3-28.2,18.5-50.9C40.3,165,55.1,153,73.5,144.4C96.7,133.5,125.8,128,160,128s65.9-6.3,90.3-18.7c19.7-10,35.5-24,47-41.6
		c6.4-9.8,11.3-20.4,14.8-31.7C312,36,312,100.6,312,100.6z M144.8,13.1c-0.8-0.8-1.8-1.1-2.9-1.1c-20.2,0.8-39.5,10.8-54.3,28.2
		c-18.7,21.9-28.4,53.1-25.1,81.4c0.1,1.1,0.7,2.1,1.5,2.7c0.7,0.5,1.5,0.8,2.4,0.8c0.2,0,0.4,0,0.6-0.1
		c24.3-3.8,44.3-15.4,57.9-33.6C139.1,72.5,146.2,47.1,146,16C146,14.9,145.6,13.9,144.8,13.1z M69.9,116.5
		c-1.7-25,7.2-51.9,23.6-71.1c12.3-14.4,28-23.2,44.4-25.1C137.1,73.2,112.5,107.9,69.9,116.5z M210.6,12.2
		c-28-1.8-46.7,7.6-57.2,28.9c-9,18.2-10.9,42.9-12.7,66.8l-0.1,1.8c-0.1,1.1,0.3,2.1,1,2.9c0.7,0.8,1.7,1.3,2.8,1.3
		c2.4,0.1,4.6,0.2,6.9,0.2c19.4,0,33.1-4.4,42.9-13.8c16.8-16,20.2-45.2,20.2-84.1C214.3,14.1,212.7,12.3,210.6,12.2L210.6,12.2z
		 M188.6,94.5c-8.6,8.2-21.3,11.9-39.8,11.6c3.4-44.6,7.4-86.1,55.4-86.1c0.7,0,1.4,0,2.1,0C206.1,55,202.8,81,188.6,94.5z M299,16
		c0,2.2-1.8,4-4,4h-31.5c2.9,27.2-7.7,47.5-17.3,59.9c-11,14.2-23,21.4-23.5,21.7c-0.6,0.4-1.3,0.6-2,0.6c-1.4,0-2.7-0.7-3.4-2
		c-1.1-1.9-0.5-4.3,1.4-5.5c0.1-0.1,11.4-6.9,21.4-19.9C252.7,58.5,257.9,40,255.5,20H223c-2.2,0-4-1.8-4-4s1.8-4,4-4h72
		C297.2,12,299,13.8,299,16z M96.6,143.5c-1.1-0.7-2.5-0.9-3.8-0.4c-2.5,1.1-61.9,26.9-70.7,79.2c-0.4,2.2,1.1,4.2,3.3,4.6
		c0.2,0,0.5,0.1,0.7,0.1c1.9,0,3.6-1.4,3.9-3.3c1.4-8,4.1-15.4,7.7-22.2c7-0.5,27.4-3.1,42.4-18c18.1-17.9,18.3-35.9,18.3-36.7
		C98.4,145.5,97.8,144.2,96.6,143.5L96.6,143.5z M74.6,177.8c-10,9.9-23.1,13.6-31.4,14.9c14.1-20.1,35.2-33.2,46-38.9
		C87.5,159.9,83.6,168.9,74.6,177.8L74.6,177.8z M157.7,138.5c-0.8-1.1-2-1.7-3.3-1.7c-15.4,0-24.9,0.9-41.6,18.4
		c-16,16.8-31.6,63.1-32.2,65c-0.7,2.1,0.4,4.4,2.5,5.1c0.4,0.1,0.8,0.2,1.3,0.2c1.7,0,3.2-1.1,3.8-2.7c0.1-0.3,4.8-14.3,11.5-29.5
		c1.2,0.2,3.7,0.5,7.1,0.3c8.2,0.9,13.8,3.5,16.4,7.7c4.7,7.4-0.3,18.3-0.4,18.5c-0.9,2-0.1,4.4,1.9,5.3s4.4,0.1,5.3-1.9
		c0.3-0.6,7.1-14.9,0-26.2c-1.9-3.1-4.7-5.6-8.3-7.5c11.7-5.6,25.7-18.5,36.4-47.4C158.7,141,158.5,139.6,157.7,138.5L157.7,138.5z
		 M107.1,185.6c-1.2-0.1-2.4-0.2-3.7-0.3c4.7-9.8,10-19.1,15.2-24.6c12.4-13,19.2-15.4,29.9-15.8
		C134.5,178.4,116.4,184.7,107.1,185.6L107.1,185.6z M188.2,141.5c-0.3,0.4-26.7,41.7-35.4,82.3c-0.4,1.9-2.1,3.2-3.9,3.2
		c-0.3,0-0.6,0-0.8-0.1c-2.2-0.5-3.5-2.6-3.1-4.8c9.1-42.1,35.4-83.3,36.6-85c1.2-1.9,3.7-2.4,5.5-1.2
		C188.9,137.2,189.4,139.6,188.2,141.5z M220,222.1c-1,1.3-2.6,1.8-4.1,1.4c-1.5-0.4-2.7-1.6-3-3.2c-4.6-26.1-6.2-51.2-6.8-66.4
		c-7,14-17.3,38.6-21.9,69.6c-0.3,2-2,3.4-3.9,3.4c-0.2,0-0.4,0-0.6-0.1c-2.2-0.3-3.7-2.4-3.4-4.5c7.4-50.6,29.2-84.1,30.1-85.5
		c1-1.5,2.8-2.1,4.5-1.6c1.7,0.5,2.9,2.1,2.8,3.9c0,0.4-0.2,32.6,5.4,69.6c7.9-13.8,21.2-42.9,16.2-77.4c-0.3-2.2,1.2-4.2,3.4-4.5
		c2.2-0.3,4.2,1.2,4.5,3.4C250.7,181.6,221.2,220.5,220,222.1z M306.6,81.3c-4.8,9.9-11.4,18.1-18.4,24.7c0.8,9.4,2,47-26.4,85.1
		c-0.8,1-2,1.6-3.2,1.6c-0.9,0-1.7-0.3-2.4-0.8c-1.8-1.3-2.1-3.8-0.8-5.6c22.2-29.8,25.1-60,25-73.7c-14,10.7-27.2,15.5-28.1,15.9
		c-0.4,0.1-0.9,0.2-1.3,0.2c-1.6,0-3.2-1-3.8-2.7c-0.7-2.1,0.4-4.4,2.4-5.1c0.5-0.2,35.5-13,49.8-43.1c1-2,3.3-2.8,5.3-1.9
		C306.7,77,307.5,79.3,306.6,81.3L306.6,81.3z M83.3,35.5c-0.1,0.1-14.5,8.3-28.9,25.6c-8.4,10-17.9,24.5-24.1,43.4l18.6-4.3
		c2.2-0.5,4.3,0.8,4.8,3s-0.8,4.3-3,4.8l-23,5.4c-2.2,8.8-3.7,18.3-4.1,28.8v18.1c0,2.2-1.8,4-4,4s-4-1.8-4-4v-18.4
		c1.5-40.8,18.7-69.4,32.9-86.2c15.4-18.3,30.3-26.8,30.9-27.1c1.9-1.1,4.4-0.4,5.4,1.5C85.9,32,85.2,34.4,83.3,35.5z"/>
</g>
</svg>
