<?xml version="1.0" encoding="UTF-8"?>
<svg id="Layer_2" data-name="Layer 2" xmlns="http://www.w3.org/2000/svg" viewBox="0 0 320 239">
  <defs>
    <style>
      .cls-1 {
        fill: #fff;
      }
    </style>
  </defs>
  <g id="Layer_6" data-name="Layer 6">
    <path class="cls-1" d="M313,0H138.38C101.42,0,66.67,14.39,40.53,40.52,14.39,66.66,0,101.41,0,138.38v93.62c0,3.86,3.14,7,7,7H181.62c36.97,0,71.72-14.4,97.84-40.53,26.14-26.14,40.54-60.89,40.54-97.85V7c0-3.86-3.14-7-7-7ZM8,138.38C8,66.49,66.49,8,138.38,8h170.59c-.23,5.26-2.16,30.41-18.44,55.3-10.73,16.41-25.5,29.48-43.9,38.85-23.22,11.84-52.37,17.85-86.63,17.85s-65.83,5.8-90.16,17.25c-19.66,9.25-35.46,22.18-46.98,38.43-6.44,9.11-11.42,19.01-14.86,29.54v-66.84Zm304-37.76c0,71.89-58.49,130.38-130.38,130.38H11.03c.26-5.03,2.3-28.17,18.54-50.95,10.74-15.05,25.51-27.05,43.89-35.66,23.22-10.87,52.34-16.39,86.54-16.39s65.91-6.3,90.27-18.72c19.66-10.02,35.45-24.02,46.95-41.59,6.39-9.77,11.34-20.42,14.78-31.74V100.62ZM144.76,13.1c-.78-.75-1.84-1.14-2.92-1.1-20.19,.82-39.49,10.83-54.35,28.19-18.74,21.89-28.36,53.1-25.11,81.45,.12,1.08,.68,2.07,1.55,2.73,.7,.53,1.55,.82,2.42,.82,.21,0,.42-.02,.62-.05,24.27-3.8,44.29-15.42,57.88-33.61,14.24-19.05,21.36-44.47,21.15-75.56-.01-1.09-.45-2.12-1.24-2.87ZM69.95,116.48c-1.65-25.04,7.21-51.92,23.62-71.09,12.35-14.43,27.98-23.22,44.41-25.08-.91,52.92-25.48,87.62-68.03,96.17ZM210.59,12.21c-27.98-1.81-46.72,7.64-57.24,28.88-9.02,18.19-10.9,42.9-12.71,66.79l-.13,1.75c-.09,1.08,.27,2.14,.98,2.95,.72,.81,1.73,1.3,2.81,1.35,2.36,.11,4.65,.17,6.86,.17,19.37,0,33.12-4.44,42.94-13.78,16.76-15.96,20.21-45.17,20.23-84.11,0-2.11-1.63-3.86-3.74-4Zm-22.01,82.31c-8.62,8.21-21.31,11.9-39.78,11.56,3.4-44.56,7.4-86.08,55.39-86.08,.7,0,1.41,.01,2.13,.03-.23,34.96-3.55,60.99-17.74,74.49ZM299,16c0,2.2-1.79,4-4,4h-31.45c2.88,27.19-7.66,47.48-17.32,59.94-10.99,14.17-22.99,21.37-23.5,21.67-.64,.37-1.34,.55-2.03,.55-1.37,0-2.7-.7-3.45-1.96-1.12-1.9-.49-4.35,1.41-5.48,.11-.06,11.37-6.86,21.43-19.92,12.59-16.35,17.77-34.78,15.42-54.8h-32.51c-2.21,0-4-1.8-4-4s1.79-4,4-4h72c2.21,0,4,1.79,4,4ZM96.64,143.5c-1.12-.74-2.53-.87-3.77-.35-2.52,1.08-61.87,26.85-70.67,79.18-.36,2.18,1.11,4.24,3.28,4.61,.23,.04,.45,.06,.67,.06,1.92,0,3.61-1.39,3.94-3.34,1.35-8.04,4.08-15.43,7.7-22.16,7.01-.46,27.37-3.08,42.39-17.97,18.05-17.9,18.26-35.93,18.26-36.69,0-1.35-.68-2.6-1.8-3.34Zm-22.09,34.34c-10,9.92-23.14,13.59-31.38,14.95,14.1-20.1,35.24-33.15,46.01-38.9-1.68,5.98-5.57,14.97-14.63,23.95Zm83.18-39.31c-.75-1.07-1.97-1.71-3.28-1.71-15.38,0-24.89,.85-41.58,18.39-16.01,16.82-31.55,63.07-32.21,65.03-.7,2.1,.44,4.37,2.53,5.06,.42,.14,.85,.21,1.27,.21,1.67,0,3.23-1.06,3.79-2.73,.09-.26,4.81-14.32,11.51-29.5,1.17,.21,3.67,.53,7.08,.32,8.16,.9,13.78,3.52,16.43,7.71,4.7,7.43-.35,18.3-.43,18.47-.95,1.99-.11,4.37,1.88,5.33,1.99,.96,4.38,.13,5.34-1.86,.29-.61,7.05-14.95,0-26.17-1.95-3.1-4.71-5.6-8.26-7.49,11.68-5.61,25.67-18.52,36.4-47.38,.45-1.23,.28-2.6-.47-3.68Zm-50.66,47.05c-1.18-.12-2.4-.21-3.65-.26,4.69-9.77,10.01-19.1,15.25-24.6,12.37-13.01,19.24-15.4,29.87-15.82-14,33.52-32.12,39.83-41.47,40.68Zm81.17-44.08c-.27,.41-26.71,41.73-35.45,82.34-.4,1.87-2.06,3.16-3.91,3.16-.28,0-.56-.03-.84-.09-2.16-.47-3.54-2.6-3.07-4.76,9.05-42.06,35.43-83.26,36.55-84.99,1.2-1.86,3.67-2.39,5.53-1.19,1.85,1.2,2.39,3.67,1.19,5.53Zm31.72,80.64c-.97,1.26-2.59,1.82-4.13,1.44-1.53-.38-2.7-1.63-2.98-3.19-4.59-26.11-6.24-51.17-6.82-66.39-6.99,13.97-17.32,38.62-21.86,69.58-.29,1.99-2,3.42-3.95,3.42-.19,0-.39-.02-.59-.05-2.18-.32-3.69-2.35-3.37-4.53,7.41-50.61,29.18-84.07,30.11-85.47,.97-1.48,2.81-2.13,4.5-1.62,1.7,.51,2.85,2.08,2.84,3.85-.01,.36-.17,32.62,5.36,69.6,7.94-13.75,21.23-42.9,16.17-77.43-.32-2.18,1.19-4.22,3.38-4.54,2.18-.31,4.22,1.19,4.54,3.38,7.53,51.39-21.94,90.32-23.2,91.95Zm86.63-140.8c-4.75,9.94-11.4,18.1-18.42,24.67,.82,9.4,1.98,47.04-26.4,85.1-.75,1.01-1.95,1.61-3.21,1.61-.87,0-1.69-.28-2.39-.79-1.77-1.32-2.13-3.83-.82-5.6,22.25-29.84,25.09-60.02,25.05-73.73-13.96,10.72-27.22,15.55-28.15,15.88-.44,.15-.89,.23-1.34,.23-1.64,0-3.18-1.02-3.77-2.66-.74-2.08,.35-4.37,2.43-5.11,.53-.19,35.46-13.04,49.81-43.05,.95-1.99,3.34-2.84,5.33-1.88,1.99,.95,2.84,3.34,1.88,5.33ZM83.31,35.49c-.14,.08-14.48,8.34-28.94,25.6-8.39,10.01-17.91,24.45-24.13,43.41l18.62-4.34c2.15-.5,4.3,.83,4.8,2.98s-.83,4.3-2.98,4.81l-23.01,5.36c-2.21,8.75-3.69,18.35-4.08,28.8v18.13c0,2.2-1.79,4-4,4s-4-1.8-4-4v-18.35c1.5-40.76,18.7-69.38,32.87-86.21,15.37-18.26,30.28-26.8,30.91-27.15,1.92-1.09,4.36-.42,5.45,1.51,1.09,1.92,.41,4.36-1.51,5.45Z"/>
  </g>
</svg>